<svg xmlns="http://www.w3.org/2000/svg" viewBox="0 0 128 128">
  <defs>
    <radialGradient id="bg" cx="50%" cy="40%" r="70%">
      <stop offset="0%" stop-color="#1c1917"/>
      <stop offset="100%" stop-color="#0c0a09"/>
    </radialGradient>
    <linearGradient id="rim" x1="0" y1="0" x2="0" y2="1">
      <stop offset="0%" stop-color="#a8a29e"/>
      <stop offset="50%" stop-color="#78716c"/>
      <stop offset="100%" stop-color="#44403c"/>
    </linearGradient>
    <linearGradient id="face" x1="0" y1="0" x2="0" y2="1">
      <stop offset="0%" stop-color="#f87171"/>
      <stop offset="100%" stop-color="#991b1b"/>
    </linearGradient>
    <radialGradient id="core" cx="45%" cy="35%" r="65%">
      <stop offset="0%" stop-color="#fecaca"/>
      <stop offset="100%" stop-color="#b91c1c"/>
    </radialGradient>
  </defs>
  <circle cx="64" cy="64" r="62" fill="url(#bg)"/>
  <circle cx="64" cy="64" r="52" fill="url(#rim)"/>
  <circle cx="64" cy="64" r="42" fill="#1c1917"/>
  <circle cx="64" cy="64" r="38" fill="url(#face)"/>
  <circle cx="64" cy="64" r="24" fill="url(#core)" stroke="#7f1d1d" stroke-width="2"/>
  <g fill="#1c1917" opacity="0.5">
    <rect x="60" y="12" width="8" height="10" rx="1"/>
    <rect x="60" y="106" width="8" height="10" rx="1"/>
    <rect x="12" y="60" width="10" height="8" rx="1"/>
    <rect x="106" y="60" width="10" height="8" rx="1"/>
    <rect x="26" y="26" width="9" height="8" rx="1" transform="rotate(-45 30.5 30)"/>
    <rect x="93" y="26" width="9" height="8" rx="1" transform="rotate(45 97.5 30)"/>
  </g>
  <!-- crack -->
  <path d="M48 38 L58 52 L52 64 L62 78 L56 90" fill="none" stroke="#1c1917" stroke-width="2.5" stroke-linecap="round" stroke-linejoin="round"/>
  <path d="M58 52 L68 48 M52 64 L44 70 M62 78 L72 74" fill="none" stroke="#1c1917" stroke-width="1.8" stroke-linecap="round"/>
  <!-- dull center -->
  <circle cx="64" cy="64" r="5" fill="#450a0a"/>
</svg>
