<svg xmlns="http://www.w3.org/2000/svg" viewBox="0 0 128 128" width="128" height="128">
  <defs>
    <radialGradient id="bg" cx="50%" cy="45%" r="55%">
      <stop offset="0%" stop-color="#ff8c00"/>
      <stop offset="100%" stop-color="#e65100"/>
    </radialGradient>
  </defs>
  <circle cx="64" cy="64" r="62" fill="url(#bg)"/>
  <!-- hair - spiky blonde -->
  <path d="M28 58 Q22 25 38 15 Q42 35 48 22 Q50 12 56 10 Q58 22 62 8 Q66 22 70 8 Q72 12 78 10 Q80 22 86 15 Q106 25 100 58 Z" fill="#ffcc00"/>
  <path d="M30 58 Q30 35 40 24 Q44 38 50 28 Q53 18 58 14 Q60 26 64 12 Q68 26 70 14 Q75 18 78 28 Q84 38 88 24 Q98 35 98 58 Z" fill="#ffd633"/>
  <!-- headband -->
  <rect x="32" y="48" width="64" height="10" rx="2" fill="#3366cc"/>
  <rect x="50" y="47" width="28" height="12" rx="2" fill="#c0c0c0" stroke="#888" stroke-width="0.5"/>
  <!-- leaf symbol on headband -->
  <path d="M60 53 Q64 48 68 53 Q64 56 60 53" fill="#3366cc" stroke="#3366cc" stroke-width="0.5"/>
  <line x1="64" y1="50" x2="64" y2="56" stroke="#3366cc" stroke-width="1"/>
  <!-- face -->
  <ellipse cx="64" cy="72" rx="28" ry="24" fill="#ffcc99"/>
  <!-- eyes - big blue -->
  <ellipse cx="50" cy="68" rx="7" ry="6" fill="white"/>
  <ellipse cx="78" cy="68" rx="7" ry="6" fill="white"/>
  <circle cx="50" cy="68" r="4.5" fill="#0066ff"/>
  <circle cx="78" cy="68" r="4.5" fill="#0066ff"/>
  <circle cx="50" cy="68" r="2.5" fill="#003399"/>
  <circle cx="78" cy="68" r="2.5" fill="#003399"/>
  <circle cx="51" cy="67" r="1.2" fill="white"/>
  <circle cx="79" cy="67" r="1.2" fill="white"/>
  <!-- eyebrows -->
  <path d="M43 62 Q50 59 56 62" stroke="#cc9900" stroke-width="2" fill="none"/>
  <path d="M72 62 Q78 59 85 62" stroke="#cc9900" stroke-width="2" fill="none"/>
  <!-- whisker marks (3 on each side) -->
  <line x1="24" y1="70" x2="40" y2="72" stroke="#cc8855" stroke-width="1.5" stroke-linecap="round"/>
  <line x1="24" y1="76" x2="40" y2="76" stroke="#cc8855" stroke-width="1.5" stroke-linecap="round"/>
  <line x1="24" y1="82" x2="40" y2="80" stroke="#cc8855" stroke-width="1.5" stroke-linecap="round"/>
  <line x1="88" y1="72" x2="104" y2="70" stroke="#cc8855" stroke-width="1.5" stroke-linecap="round"/>
  <line x1="88" y1="76" x2="104" y2="76" stroke="#cc8855" stroke-width="1.5" stroke-linecap="round"/>
  <line x1="88" y1="80" x2="104" y2="82" stroke="#cc8855" stroke-width="1.5" stroke-linecap="round"/>
  <!-- nose -->
  <ellipse cx="64" cy="77" rx="2" ry="1.5" fill="#e6aa77"/>
  <!-- big grin -->
  <path d="M50 84 Q64 94 78 84" stroke="#cc6644" stroke-width="2" fill="#fff0f0"/>
  <!-- teeth -->
  <line x1="57" y1="86" x2="57" y2="89" stroke="#fff" stroke-width="1"/>
  <line x1="64" y1="87" x2="64" y2="91" stroke="#fff" stroke-width="1"/>
  <line x1="71" y1="86" x2="71" y2="89" stroke="#fff" stroke-width="1"/>
  <!-- jacket collar -->
  <path d="M36 96 L48 90 L64 100 L80 90 L92 96" stroke="#ff6600" stroke-width="3" fill="#ff7700"/>
  <line x1="64" y1="95" x2="64" y2="104" stroke="#ff8800" stroke-width="2"/>
</svg>
