<svg xmlns="http://www.w3.org/2000/svg" viewBox="0 0 128 128">
  <defs>
    <radialGradient id="bg" cx="50%" cy="40%" r="70%">
      <stop offset="0%" stop-color="#1e293b"/>
      <stop offset="100%" stop-color="#020617"/>
    </radialGradient>
    <linearGradient id="rim" x1="0" y1="0" x2="0" y2="1">
      <stop offset="0%" stop-color="#e2e8f0"/>
      <stop offset="45%" stop-color="#94a3b8"/>
      <stop offset="100%" stop-color="#475569"/>
    </linearGradient>
    <linearGradient id="face" x1="0" y1="0" x2="0" y2="1">
      <stop offset="0%" stop-color="#cbd5e1"/>
      <stop offset="100%" stop-color="#64748b"/>
    </linearGradient>
    <radialGradient id="core" cx="45%" cy="35%" r="65%">
      <stop offset="0%" stop-color="#f1f5f9"/>
      <stop offset="100%" stop-color="#94a3b8"/>
    </radialGradient>
  </defs>
  <circle cx="64" cy="64" r="62" fill="url(#bg)"/>
  <circle cx="64" cy="64" r="52" fill="url(#rim)"/>
  <circle cx="64" cy="64" r="42" fill="#0f172a"/>
  <circle cx="64" cy="64" r="38" fill="url(#face)"/>
  <circle cx="64" cy="64" r="24" fill="url(#core)" stroke="#475569" stroke-width="2"/>
  <!-- edge notches -->
  <g fill="#0f172a" opacity="0.55">
    <rect x="60" y="12" width="8" height="10" rx="1"/>
    <rect x="60" y="106" width="8" height="10" rx="1"/>
    <rect x="12" y="60" width="10" height="8" rx="1"/>
    <rect x="106" y="60" width="10" height="8" rx="1"/>
    <rect x="26" y="26" width="9" height="8" rx="1" transform="rotate(-45 30.5 30)"/>
    <rect x="93" y="26" width="9" height="8" rx="1" transform="rotate(45 97.5 30)"/>
    <rect x="26" y="94" width="9" height="8" rx="1" transform="rotate(45 30.5 98)"/>
    <rect x="93" y="94" width="9" height="8" rx="1" transform="rotate(-45 97.5 98)"/>
  </g>
  <!-- center pip -->
  <circle cx="64" cy="64" r="7" fill="#334155"/>
  <circle cx="64" cy="64" r="3.5" fill="#f8fafc"/>
</svg>
