<svg xmlns="http://www.w3.org/2000/svg" viewBox="0 0 128 128">
  <defs>
    <radialGradient id="bg" cx="50%" cy="45%" r="70%">
      <stop offset="0%" stop-color="#292524"/>
      <stop offset="100%" stop-color="#0c0a09"/>
    </radialGradient>
    <linearGradient id="rim" x1="0" y1="0" x2="0" y2="1">
      <stop offset="0%" stop-color="#78716c"/>
      <stop offset="100%" stop-color="#292524"/>
    </linearGradient>
    <linearGradient id="face" x1="0" y1="0" x2="0" y2="1">
      <stop offset="0%" stop-color="#ef4444"/>
      <stop offset="100%" stop-color="#7f1d1d"/>
    </linearGradient>
    <radialGradient id="core" cx="48%" cy="40%" r="65%">
      <stop offset="0%" stop-color="#fca5a5"/>
      <stop offset="100%" stop-color="#991b1b"/>
    </radialGradient>
  </defs>
  <circle cx="64" cy="64" r="62" fill="url(#bg)"/>
  <!-- broken chips shards around -->
  <g fill="#57534e" opacity="0.7">
    <path d="M18 40 L28 36 L26 48 Z"/>
    <path d="M102 88 L114 84 L110 98 Z"/>
    <path d="M100 28 L112 34 L104 42 Z"/>
  </g>
  <circle cx="64" cy="66" r="50" fill="url(#rim)"/>
  <circle cx="64" cy="66" r="40" fill="#1c1917"/>
  <circle cx="64" cy="66" r="36" fill="url(#face)"/>
  <circle cx="64" cy="66" r="22" fill="url(#core)" stroke="#450a0a" stroke-width="2"/>
  <!-- deep fracture -->
  <path d="M42 34 L56 50 L48 66 L66 82 L54 100" fill="none" stroke="#0c0a09" stroke-width="3.2" stroke-linecap="round" stroke-linejoin="round"/>
  <path d="M56 50 L70 44 M48 66 L36 72 M66 82 L80 76 M54 100 L64 108" fill="none" stroke="#0c0a09" stroke-width="2.2" stroke-linecap="round"/>
  <!-- gap wedge suggesting bust -->
  <path d="M78 42 L92 28 L96 48 Z" fill="#0c0a09" opacity="0.85"/>
  <circle cx="64" cy="66" r="4" fill="#1c1917"/>
</svg>
