<svg width="560" height="560" viewBox="0 0 560 560" fill="none" xmlns="http://www.w3.org/2000/svg">
<g clip-path="url(#clip0_7072_35094)">
<path d="M560 0H0V560H560V0Z" fill="#C3FF00"/>
<path d="M448.213 247.098H385.877L469.866 161.403L470.369 160.894L439.756 130.25H356.466V111.594C356.466 99.5278 346.661 89.707 334.606 89.707H245.234C233.178 89.707 223.378 99.5226 223.378 111.594V269.13H111.793C99.7427 269.13 89.9375 278.951 89.9375 291.017C89.9375 303.083 99.7427 312.903 111.793 312.903H174.129L90.1397 398.568L89.6367 399.076L120.245 429.72H203.54V448.408C203.54 460.474 213.345 470.294 225.395 470.294H314.767C326.817 470.294 336.628 460.479 336.628 448.408V290.871H448.213C460.269 290.871 470.074 281.056 470.074 268.985C470.074 256.914 460.269 247.098 448.213 247.098ZM327.528 448.408C327.528 455.449 321.803 461.184 314.767 461.184C307.731 461.184 302.006 455.454 302.006 448.408V323.071L209.86 417.079L191.816 399.014L285.186 303.788H201.16C194.123 303.788 188.399 298.058 188.399 291.011C188.399 283.965 194.123 278.235 201.16 278.235H308.68C319.076 278.235 327.528 286.697 327.528 297.109V448.408ZM448.213 281.761H340.688C330.297 281.761 321.84 273.299 321.84 262.892V111.594C321.84 104.552 327.564 98.8174 334.6 98.8174C341.637 98.8174 347.361 104.547 347.361 111.594V236.93L439.507 142.886L457.552 160.951L364.182 256.214H448.208C455.244 256.214 460.969 261.943 460.969 268.99C460.969 276.037 455.244 281.766 448.208 281.766L448.213 281.761Z" fill="black"/>
</g>
<defs>
<clipPath id="clip0_7072_35094">
<rect width="560" height="560" rx="144" fill="white"/>
</clipPath>
</defs>
</svg>
